<svg width="2560" height="512" viewBox="0 0 2560 512" fill="none" xmlns="http://www.w3.org/2000/svg">
  <rect width="2560" height="512" fill="#101010"/>
  <path d="M1601.97 134.5H1545.27V377.5H1601.97V237.775L1691.07 377.5H1747.77V134.5H1689.05V272.2L1601.97 134.5Z" fill="white"/>
  <path fill-rule="evenodd" clip-rule="evenodd" d="M1162.55 197.275C1139.54 197.275 1122.05 215.342 1122.05 236.2V275.8C1122.05 296.658 1139.54 314.725 1162.55 314.725H1397.45C1420.46 314.725 1437.95 296.658 1437.95 275.8V236.2C1437.95 215.342 1420.46 197.275 1397.45 197.275H1162.55ZM1061.3 236.2C1061.3 180.511 1107.28 136.525 1162.55 136.525H1397.45C1452.72 136.525 1498.7 180.511 1498.7 236.2V275.8C1498.7 331.489 1452.72 375.475 1397.45 375.475H1162.55C1107.28 375.475 1061.3 331.489 1061.3 275.8V236.2Z" fill="white"/>
  <path d="M870.95 134.5H812.225V377.5H868.925V264.1L897.275 377.5H929.675L958.025 264.1V377.5H1014.72V134.5H956L915.5 280.3L870.95 134.5Z" fill="white"/>
</svg>
