<svg width="41" height="24" viewBox="0 0 41 24" fill="none" xmlns="http://www.w3.org/2000/svg">
  <rect width="41" height="24" rx="6" fill="#4ADE80" fill-opacity="0.2"/>
  <path d="M13.6364 10.1094C13.5668 9.86742 13.469 9.65365 13.343 9.46804C13.2171 9.27912 13.063 9.12003 12.8807 8.99077C12.7017 8.85819 12.4962 8.7571 12.2642 8.6875C12.0355 8.6179 11.782 8.5831 11.5036 8.5831C10.9832 8.5831 10.5258 8.71236 10.1314 8.97088C9.74029 9.2294 9.43537 9.60559 9.21662 10.0994C8.99787 10.59 8.88849 11.1899 8.88849 11.8991C8.88849 12.6084 8.99621 13.2116 9.21165 13.7088C9.42708 14.206 9.73201 14.5855 10.1264 14.8473C10.5208 15.1058 10.9865 15.2351 11.5234 15.2351C12.0107 15.2351 12.4266 15.1489 12.7713 14.9766C13.1193 14.8009 13.3845 14.554 13.5668 14.2358C13.7524 13.9176 13.8452 13.5414 13.8452 13.1072L14.2827 13.1719H11.6577V11.5511H15.9183V12.8338C15.9183 13.7287 15.7294 14.4976 15.3516 15.1406C14.9737 15.7803 14.4534 16.2741 13.7905 16.6222C13.1276 16.9669 12.3686 17.1392 11.5135 17.1392C10.5589 17.1392 9.72041 16.9287 8.99787 16.5078C8.27533 16.0836 7.71188 15.482 7.30753 14.7031C6.90649 13.9209 6.70597 12.9929 6.70597 11.919C6.70597 11.0937 6.82528 10.358 7.06392 9.71165C7.30587 9.06203 7.64394 8.51184 8.07812 8.06108C8.51231 7.61032 9.01776 7.26728 9.59446 7.03196C10.1712 6.79664 10.7959 6.67898 11.4688 6.67898C12.0455 6.67898 12.5824 6.76349 13.0795 6.93253C13.5767 7.09825 14.0175 7.33357 14.402 7.63849C14.7898 7.94342 15.1063 8.30634 15.3516 8.72727C15.5968 9.14489 15.7543 9.60559 15.8239 10.1094H13.6364ZM17.5353 17V6.81818H24.3961V8.59304H19.688V11.0192H24.0431V12.794H19.688V15.2251H24.416V17H17.5353ZM25.7198 8.59304V6.81818H34.082V8.59304H30.9648V17H28.837V8.59304H25.7198Z" fill="#4ADE80"/>
</svg>
