<svg width="41" height="24" viewBox="0 0 41 24" fill="none" xmlns="http://www.w3.org/2000/svg">
  <rect width="41" height="24" rx="6" fill="#FACC15" fill-opacity="0.2"/>
  <path d="M6.88494 17V6.81818H10.902C11.6742 6.81818 12.3321 6.96567 12.8757 7.26065C13.4193 7.55232 13.8336 7.95833 14.1186 8.47869C14.407 8.99574 14.5511 9.59233 14.5511 10.2685C14.5511 10.9446 14.4053 11.5412 14.1136 12.0582C13.822 12.5753 13.3994 12.978 12.8459 13.2663C12.2957 13.5547 11.6295 13.6989 10.8473 13.6989H8.28693V11.9737H10.4993C10.9136 11.9737 11.255 11.9025 11.5234 11.7599C11.7952 11.6141 11.9974 11.4136 12.13 11.1584C12.2659 10.8999 12.3338 10.6032 12.3338 10.2685C12.3338 9.9304 12.2659 9.63542 12.13 9.38352C11.9974 9.12831 11.7952 8.93111 11.5234 8.7919C11.2517 8.64938 10.907 8.57812 10.4893 8.57812H9.03764V17H6.88494ZM22.2385 6.81818H24.3912V13.4304C24.3912 14.1728 24.2138 14.8224 23.8592 15.3793C23.5079 15.9361 23.0157 16.3703 22.3826 16.6818C21.7496 16.9901 21.0121 17.1442 20.1703 17.1442C19.3251 17.1442 18.586 16.9901 17.9529 16.6818C17.3199 16.3703 16.8277 15.9361 16.4764 15.3793C16.1251 14.8224 15.9494 14.1728 15.9494 13.4304V6.81818H18.1021V13.2464C18.1021 13.6342 18.1866 13.9789 18.3556 14.2805C18.528 14.5821 18.7699 14.8191 19.0815 14.9915C19.3931 15.1638 19.756 15.25 20.1703 15.25C20.5879 15.25 20.9508 15.1638 21.2591 14.9915C21.5706 14.8191 21.8109 14.5821 21.9799 14.2805C22.1523 13.9789 22.2385 13.6342 22.2385 13.2464V6.81818ZM25.7745 8.59304V6.81818H34.1367V8.59304H31.0195V17H28.8917V8.59304H25.7745Z" fill="#FACC15"/>
</svg>
