<svg width="39" height="24" viewBox="0 0 39 24" fill="none" xmlns="http://www.w3.org/2000/svg">
  <rect width="39" height="24" rx="6" fill="#F87171" fill-opacity="0.2"/>
  <path d="M10.4943 17H6.88494V6.81818H10.5241C11.5483 6.81818 12.4299 7.02202 13.169 7.42969C13.9081 7.83404 14.4766 8.41572 14.8743 9.17472C15.2753 9.93371 15.4759 10.8419 15.4759 11.8991C15.4759 12.9598 15.2753 13.8712 14.8743 14.6335C14.4766 15.3958 13.9048 15.9808 13.1591 16.3885C12.4167 16.7962 11.5284 17 10.4943 17ZM9.03764 15.1555H10.4048C11.0412 15.1555 11.5765 15.0429 12.0107 14.8175C12.4482 14.5888 12.7763 14.2358 12.995 13.7585C13.2171 13.2779 13.3281 12.6581 13.3281 11.8991C13.3281 11.1468 13.2171 10.532 12.995 10.0547C12.7763 9.57741 12.4498 9.22609 12.0156 9.00071C11.5814 8.77533 11.0462 8.66264 10.4098 8.66264H9.03764V15.1555ZM17.0705 17V6.81818H23.9313V8.59304H19.2232V11.0192H23.5783V12.794H19.2232V15.2251H23.9512V17H17.0705ZM25.6428 17V6.81818H27.7955V15.2251H32.1605V17H25.6428Z" fill="#F87171"/>
</svg>
