<svg width="51" height="24" viewBox="0 0 51 24" fill="none" xmlns="http://www.w3.org/2000/svg">
  <rect width="51" height="24" rx="6" fill="#60A5FA" fill-opacity="0.2"/>
  <path d="M6.88494 17V6.81818H10.902C11.6742 6.81818 12.3321 6.96567 12.8757 7.26065C13.4193 7.55232 13.8336 7.95833 14.1186 8.47869C14.407 8.99574 14.5511 9.59233 14.5511 10.2685C14.5511 10.9446 14.4053 11.5412 14.1136 12.0582C13.822 12.5753 13.3994 12.978 12.8459 13.2663C12.2957 13.5547 11.6295 13.6989 10.8473 13.6989H8.28693V11.9737H10.4993C10.9136 11.9737 11.255 11.9025 11.5234 11.7599C11.7952 11.6141 11.9974 11.4136 12.13 11.1584C12.2659 10.8999 12.3338 10.6032 12.3338 10.2685C12.3338 9.9304 12.2659 9.63542 12.13 9.38352C11.9974 9.12831 11.7952 8.93111 11.5234 8.7919C11.2517 8.64938 10.907 8.57812 10.4893 8.57812H9.03764V17H6.88494ZM25.3059 11.9091C25.3059 13.0194 25.0955 13.964 24.6745 14.7429C24.2569 15.5218 23.6868 16.1167 22.9643 16.5277C22.2451 16.9354 21.4364 17.1392 20.5382 17.1392C19.6333 17.1392 18.8213 16.9337 18.1021 16.5227C17.3829 16.1117 16.8145 15.5168 16.3968 14.7379C15.9792 13.959 15.7704 13.0161 15.7704 11.9091C15.7704 10.7988 15.9792 9.85417 16.3968 9.07528C16.8145 8.2964 17.3829 7.70312 18.1021 7.29545C18.8213 6.88447 19.6333 6.67898 20.5382 6.67898C21.4364 6.67898 22.2451 6.88447 22.9643 7.29545C23.6868 7.70312 24.2569 8.2964 24.6745 9.07528C25.0955 9.85417 25.3059 10.7988 25.3059 11.9091ZM23.1234 11.9091C23.1234 11.1899 23.0157 10.5833 22.8002 10.0895C22.5881 9.59564 22.2882 9.22112 21.9004 8.96591C21.5126 8.7107 21.0585 8.5831 20.5382 8.5831C20.0178 8.5831 19.5637 8.7107 19.176 8.96591C18.7882 9.22112 18.4866 9.59564 18.2711 10.0895C18.059 10.5833 17.9529 11.1899 17.9529 11.9091C17.9529 12.6283 18.059 13.2348 18.2711 13.7287C18.4866 14.2225 18.7882 14.5971 19.176 14.8523C19.5637 15.1075 20.0178 15.2351 20.5382 15.2351C21.0585 15.2351 21.5126 15.1075 21.9004 14.8523C22.2882 14.5971 22.5881 14.2225 22.8002 13.7287C23.0157 13.2348 23.1234 12.6283 23.1234 11.9091ZM32.424 9.74645C32.3842 9.34541 32.2135 9.03385 31.9119 8.81179C31.6103 8.58972 31.201 8.47869 30.6839 8.47869C30.3326 8.47869 30.036 8.52841 29.794 8.62784C29.5521 8.72396 29.3665 8.85819 29.2372 9.03054C29.1113 9.20289 29.0483 9.39844 29.0483 9.61719C29.0417 9.79948 29.0798 9.95857 29.1626 10.0945C29.2488 10.2304 29.3665 10.348 29.5156 10.4474C29.6648 10.5436 29.8371 10.6281 30.0327 10.701C30.2282 10.7706 30.437 10.8303 30.6591 10.88L31.5739 11.0987C32.018 11.1982 32.4257 11.3307 32.7969 11.4964C33.1681 11.6622 33.4896 11.866 33.7614 12.108C34.0331 12.3499 34.2436 12.6349 34.3928 12.9631C34.5452 13.2912 34.6231 13.6674 34.6264 14.0916C34.6231 14.7147 34.464 15.255 34.1491 15.7124C33.8376 16.1664 33.3868 16.5194 32.7969 16.7713C32.2102 17.0199 31.5026 17.1442 30.674 17.1442C29.852 17.1442 29.1361 17.0182 28.5263 16.7663C27.9197 16.5144 27.4458 16.1416 27.1044 15.6477C26.7663 15.1506 26.589 14.5357 26.5724 13.8033H28.6555C28.6787 14.1446 28.7765 14.4297 28.9489 14.6584C29.1245 14.8838 29.3582 15.0545 29.6499 15.1705C29.9448 15.2831 30.2779 15.3395 30.6491 15.3395C31.0137 15.3395 31.3303 15.2865 31.5987 15.1804C31.8705 15.0743 32.081 14.9268 32.2301 14.7379C32.3793 14.549 32.4538 14.3319 32.4538 14.0866C32.4538 13.858 32.3859 13.6657 32.25 13.5099C32.1174 13.3542 31.9219 13.2216 31.6634 13.1122C31.4081 13.0028 31.0949 12.9034 30.7237 12.8139L29.6151 12.5355C28.7566 12.3267 28.0788 12.0002 27.5817 11.5561C27.0845 11.112 26.8376 10.5137 26.8409 9.76136C26.8376 9.14489 27.0017 8.6063 27.3331 8.1456C27.6679 7.6849 28.1269 7.32528 28.7102 7.06676C29.2936 6.80824 29.9564 6.67898 30.6989 6.67898C31.4545 6.67898 32.1141 6.80824 32.6776 7.06676C33.2443 7.32528 33.6851 7.6849 34 8.1456C34.3149 8.6063 34.4773 9.13991 34.4872 9.74645H32.424ZM35.6866 8.59304V6.81818H44.0488V8.59304H40.9316V17H38.8038V8.59304H35.6866Z" fill="#60A5FA"/>
</svg>
