<svg width="67" height="20" viewBox="0 0 67 20" fill="none" xmlns="http://www.w3.org/2000/svg">
  <rect width="67" height="20" rx="6" fill="white" fill-opacity="0.05"/>
  <path d="M9.232 15V4.78H10.618V7.3L10.604 8.77H10.618C10.6833 8.266 10.8933 7.874 11.248 7.594C11.612 7.30467 12.088 7.16 12.676 7.16C13.4413 7.16 14.0527 7.40267 14.51 7.888C14.9673 8.37333 15.196 9.02667 15.196 9.848V15H13.81V10.058C13.81 9.50733 13.67 9.08267 13.39 8.784C13.11 8.48533 12.7273 8.336 12.242 8.336C11.738 8.336 11.3413 8.49467 11.052 8.812C10.7627 9.12 10.618 9.554 10.618 10.114V15H9.232ZM20.5945 15.14C19.6705 15.14 18.9239 14.8647 18.3545 14.314C17.7945 13.7633 17.5145 13.012 17.5145 12.06V10.24C17.5145 9.288 17.7945 8.53667 18.3545 7.986C18.9239 7.43533 19.6705 7.16 20.5945 7.16C21.2105 7.16 21.7472 7.286 22.2045 7.538C22.6712 7.78067 23.0305 8.126 23.2825 8.574C23.5439 9.01267 23.6745 9.526 23.6745 10.114V11.5H18.8725V12.172C18.8725 12.732 19.0265 13.1707 19.3345 13.488C19.6425 13.8053 20.0625 13.964 20.5945 13.964C21.0425 13.964 21.4112 13.88 21.7005 13.712C21.9899 13.544 22.1625 13.3107 22.2185 13.012H23.6045C23.5112 13.6653 23.1892 14.1833 22.6385 14.566C22.0879 14.9487 21.4065 15.14 20.5945 15.14ZM18.8725 10.114V10.478H22.3165V10.114C22.3165 9.526 22.1672 9.07333 21.8685 8.756C21.5699 8.43867 21.1452 8.28 20.5945 8.28C20.0439 8.28 19.6192 8.43867 19.3205 8.756C19.0219 9.07333 18.8725 9.526 18.8725 10.114ZM28.2751 15.14C27.4817 15.14 26.8517 14.9207 26.3851 14.482C25.9277 14.034 25.6991 13.4507 25.6991 12.732C25.6991 12.0133 25.9371 11.4347 26.4131 10.996C26.8984 10.5573 27.5331 10.338 28.3171 10.338H30.5711V9.75C30.5711 8.80733 30.0484 8.336 29.0031 8.336C28.5364 8.336 28.1584 8.42467 27.8691 8.602C27.5891 8.77 27.4397 9.008 27.4211 9.316H26.0491C26.0957 8.69067 26.3804 8.17733 26.9031 7.776C27.4257 7.36533 28.1257 7.16 29.0031 7.16C29.9457 7.16 30.6737 7.384 31.1871 7.832C31.7004 8.28 31.9571 8.91 31.9571 9.722V15H30.5991V13.586H30.5711C30.5057 14.062 30.2677 14.44 29.8571 14.72C29.4557 15 28.9284 15.14 28.2751 15.14ZM28.6391 13.978C29.2271 13.978 29.6937 13.838 30.0391 13.558C30.3937 13.2687 30.5711 12.8767 30.5711 12.382V11.36H28.4431C28.0417 11.36 27.7151 11.4813 27.4631 11.724C27.2204 11.9573 27.0991 12.27 27.0991 12.662C27.0991 13.0633 27.2344 13.3853 27.5051 13.628C27.7757 13.8613 28.1537 13.978 28.6391 13.978ZM36.8796 15.14C36.1049 15.14 35.4889 14.8833 35.0316 14.37C34.5743 13.8473 34.3456 13.1427 34.3456 12.256V10.044C34.3456 9.15733 34.5743 8.45733 35.0316 7.944C35.4889 7.42133 36.1049 7.16 36.8796 7.16C37.4489 7.16 37.9203 7.30467 38.2936 7.594C38.6763 7.88333 38.9096 8.28 38.9936 8.784L38.9656 6.992V4.78H40.3516V15H38.9796V13.502C38.8956 14.0153 38.6669 14.4167 38.2936 14.706C37.9203 14.9953 37.4489 15.14 36.8796 15.14ZM37.3556 13.936C37.8503 13.936 38.2423 13.782 38.5316 13.474C38.8209 13.166 38.9656 12.732 38.9656 12.172V10.128C38.9656 9.568 38.8209 9.134 38.5316 8.826C38.2423 8.518 37.8503 8.364 37.3556 8.364C36.8423 8.364 36.4409 8.49933 36.1516 8.77C35.8716 9.03133 35.7316 9.46067 35.7316 10.058V12.242C35.7316 12.8393 35.8716 13.2733 36.1516 13.544C36.4409 13.8053 36.8423 13.936 37.3556 13.936ZM45.7781 15.14C44.8541 15.14 44.1075 14.8647 43.5381 14.314C42.9781 13.7633 42.6981 13.012 42.6981 12.06V10.24C42.6981 9.288 42.9781 8.53667 43.5381 7.986C44.1075 7.43533 44.8541 7.16 45.7781 7.16C46.3941 7.16 46.9308 7.286 47.3881 7.538C47.8548 7.78067 48.2141 8.126 48.4661 8.574C48.7275 9.01267 48.8581 9.526 48.8581 10.114V11.5H44.0561V12.172C44.0561 12.732 44.2101 13.1707 44.5181 13.488C44.8261 13.8053 45.2461 13.964 45.7781 13.964C46.2261 13.964 46.5948 13.88 46.8841 13.712C47.1735 13.544 47.3461 13.3107 47.4021 13.012H48.7881C48.6948 13.6653 48.3728 14.1833 47.8221 14.566C47.2715 14.9487 46.5901 15.14 45.7781 15.14ZM44.0561 10.114V10.478H47.5001V10.114C47.5001 9.526 47.3508 9.07333 47.0521 8.756C46.7535 8.43867 46.3288 8.28 45.7781 8.28C45.2275 8.28 44.8028 8.43867 44.5041 8.756C44.2055 9.07333 44.0561 9.526 44.0561 10.114ZM51.4847 15V7.3H52.8567V8.784H52.8707C52.9453 8.28 53.16 7.88333 53.5147 7.594C53.8787 7.30467 54.3593 7.16 54.9567 7.16C55.75 7.16 56.366 7.40733 56.8047 7.902C57.2433 8.38733 57.4627 9.07333 57.4627 9.96V10.632H56.0767V9.974C56.0767 8.90067 55.5493 8.364 54.4947 8.364C53.9627 8.364 53.5567 8.518 53.2767 8.826C53.006 9.134 52.8707 9.57267 52.8707 10.142V15H51.4847Z" fill="#DFE3E4"/>
</svg>
