<svg width="84" height="20" viewBox="0 0 84 20" fill="none" xmlns="http://www.w3.org/2000/svg">
  <rect width="84" height="20" rx="6" fill="#F87272" fill-opacity="0.1"/>
  <path d="M9.512 15V7.3H10.884V8.784H10.898C10.9727 8.28 11.1873 7.88333 11.542 7.594C11.906 7.30467 12.3867 7.16 12.984 7.16C13.7773 7.16 14.3933 7.40733 14.832 7.902C15.2707 8.38733 15.49 9.07333 15.49 9.96V10.632H14.104V9.974C14.104 8.90067 13.5767 8.364 12.522 8.364C11.99 8.364 11.584 8.518 11.304 8.826C11.0333 9.134 10.898 9.57267 10.898 10.142V15H9.512ZM20.5945 15.14C19.6705 15.14 18.9239 14.8647 18.3545 14.314C17.7945 13.7633 17.5145 13.012 17.5145 12.06V10.24C17.5145 9.288 17.7945 8.53667 18.3545 7.986C18.9239 7.43533 19.6705 7.16 20.5945 7.16C21.2105 7.16 21.7472 7.286 22.2045 7.538C22.6712 7.78067 23.0305 8.126 23.2825 8.574C23.5439 9.01267 23.6745 9.526 23.6745 10.114V11.5H18.8725V12.172C18.8725 12.732 19.0265 13.1707 19.3345 13.488C19.6425 13.8053 20.0625 13.964 20.5945 13.964C21.0425 13.964 21.4112 13.88 21.7005 13.712C21.9899 13.544 22.1625 13.3107 22.2185 13.012H23.6045C23.5112 13.6653 23.1892 14.1833 22.6385 14.566C22.0879 14.9487 21.4065 15.14 20.5945 15.14ZM18.8725 10.114V10.478H22.3165V10.114C22.3165 9.526 22.1672 9.07333 21.8685 8.756C21.5699 8.43867 21.1452 8.28 20.5945 8.28C20.0439 8.28 19.6192 8.43867 19.3205 8.756C19.0219 9.07333 18.8725 9.526 18.8725 10.114ZM30.5711 17.52V15.294L30.5991 13.544H30.5711C30.4777 14.0387 30.2444 14.4307 29.8711 14.72C29.5071 15 29.0451 15.14 28.4851 15.14C27.7104 15.14 27.0944 14.8833 26.6371 14.37C26.1797 13.8473 25.9511 13.138 25.9511 12.242V10.044C25.9511 9.15733 26.1797 8.45733 26.6371 7.944C27.0944 7.42133 27.7104 7.16 28.4851 7.16C29.0544 7.16 29.5257 7.30467 29.8991 7.594C30.2724 7.88333 30.5011 8.28 30.5851 8.784V7.3H31.9571V17.52H30.5711ZM28.9611 13.936C29.4557 13.936 29.8477 13.782 30.1371 13.474C30.4264 13.166 30.5711 12.732 30.5711 12.172V10.128C30.5711 9.568 30.4264 9.134 30.1371 8.826C29.8477 8.518 29.4557 8.364 28.9611 8.364C28.4477 8.364 28.0464 8.49467 27.7571 8.756C27.4771 9.01733 27.3371 9.43267 27.3371 10.002V12.298C27.3371 12.8673 27.4771 13.2827 27.7571 13.544C28.0464 13.8053 28.4477 13.936 28.9611 13.936ZM37.3696 15.14C36.4643 15.14 35.7409 14.874 35.1996 14.342C34.6583 13.81 34.3876 13.0867 34.3876 12.172V7.3H35.7736V12.172C35.7736 12.7133 35.9136 13.1427 36.1936 13.46C36.4829 13.768 36.8749 13.922 37.3696 13.922C37.8736 13.922 38.2703 13.768 38.5596 13.46C38.8489 13.1427 38.9936 12.7133 38.9936 12.172V7.3H40.3796V12.172C40.3796 13.0867 40.1043 13.81 39.5536 14.342C39.0123 14.874 38.2843 15.14 37.3696 15.14ZM42.7401 15V13.74H45.4421V8.56H43.0201V7.3H46.8281V13.74H49.3621V15H42.7401ZM46.0021 5.942C45.6848 5.942 45.4328 5.86267 45.2461 5.704C45.0595 5.536 44.9661 5.312 44.9661 5.032C44.9661 4.74267 45.0595 4.514 45.2461 4.346C45.4328 4.178 45.6848 4.094 46.0021 4.094C46.3195 4.094 46.5715 4.178 46.7581 4.346C46.9448 4.514 47.0381 4.74267 47.0381 5.032C47.0381 5.312 46.9448 5.536 46.7581 5.704C46.5715 5.86267 46.3195 5.942 46.0021 5.942ZM51.4847 15V7.3H52.8567V8.784H52.8707C52.9453 8.28 53.16 7.88333 53.5147 7.594C53.8787 7.30467 54.3593 7.16 54.9567 7.16C55.75 7.16 56.366 7.40733 56.8047 7.902C57.2433 8.38733 57.4627 9.07333 57.4627 9.96V10.632H56.0767V9.974C56.0767 8.90067 55.5493 8.364 54.4947 8.364C53.9627 8.364 53.5567 8.518 53.2767 8.826C53.006 9.134 52.8707 9.57267 52.8707 10.142V15H51.4847ZM62.5672 15.14C61.6432 15.14 60.8965 14.8647 60.3272 14.314C59.7672 13.7633 59.4872 13.012 59.4872 12.06V10.24C59.4872 9.288 59.7672 8.53667 60.3272 7.986C60.8965 7.43533 61.6432 7.16 62.5672 7.16C63.1832 7.16 63.7199 7.286 64.1772 7.538C64.6439 7.78067 65.0032 8.126 65.2552 8.574C65.5165 9.01267 65.6472 9.526 65.6472 10.114V11.5H60.8452V12.172C60.8452 12.732 60.9992 13.1707 61.3072 13.488C61.6152 13.8053 62.0352 13.964 62.5672 13.964C63.0152 13.964 63.3839 13.88 63.6732 13.712C63.9625 13.544 64.1352 13.3107 64.1912 13.012H65.5772C65.4839 13.6653 65.1619 14.1833 64.6112 14.566C64.0605 14.9487 63.3792 15.14 62.5672 15.14ZM60.8452 10.114V10.478H64.2892V10.114C64.2892 9.526 64.1399 9.07333 63.8412 8.756C63.5425 8.43867 63.1179 8.28 62.5672 8.28C62.0165 8.28 61.5919 8.43867 61.2932 8.756C60.9945 9.07333 60.8452 9.526 60.8452 10.114ZM70.4577 15.14C69.6831 15.14 69.0671 14.8833 68.6097 14.37C68.1524 13.8473 67.9237 13.1427 67.9237 12.256V10.044C67.9237 9.15733 68.1524 8.45733 68.6097 7.944C69.0671 7.42133 69.6831 7.16 70.4577 7.16C71.0271 7.16 71.4984 7.30467 71.8717 7.594C72.2544 7.88333 72.4877 8.28 72.5717 8.784L72.5437 6.992V4.78H73.9297V15H72.5577V13.502C72.4737 14.0153 72.2451 14.4167 71.8717 14.706C71.4984 14.9953 71.0271 15.14 70.4577 15.14ZM70.9337 13.936C71.4284 13.936 71.8204 13.782 72.1097 13.474C72.3991 13.166 72.5437 12.732 72.5437 12.172V10.128C72.5437 9.568 72.3991 9.134 72.1097 8.826C71.8204 8.518 71.4284 8.364 70.9337 8.364C70.4204 8.364 70.0191 8.49933 69.7297 8.77C69.4497 9.03133 69.3097 9.46067 69.3097 10.058V12.242C69.3097 12.8393 69.4497 13.2733 69.7297 13.544C70.0191 13.8053 70.4204 13.936 70.9337 13.936Z" fill="#FCA5A5"/>
</svg>
