<svg width="50" height="20" viewBox="0 0 50 20" fill="none" xmlns="http://www.w3.org/2000/svg">
  <rect width="50" height="20" rx="6" fill="white" fill-opacity="0.05"/>
  <path d="M10.954 15V9.61H8.742V8.35H10.954V6.796C10.954 6.18 11.1547 5.69 11.556 5.326C11.9573 4.962 12.5033 4.78 13.194 4.78H15.448V6.026H13.194C12.6247 6.026 12.34 6.28733 12.34 6.81V8.35H15.448V9.61H12.34V15H10.954ZM17.5565 15V13.74H20.2585V8.56H17.8365V7.3H21.6445V13.74H24.1785V15H17.5565ZM20.8185 5.942C20.5012 5.942 20.2492 5.86267 20.0625 5.704C19.8759 5.536 19.7825 5.312 19.7825 5.032C19.7825 4.74267 19.8759 4.514 20.0625 4.346C20.2492 4.178 20.5012 4.094 20.8185 4.094C21.1359 4.094 21.3879 4.178 21.5745 4.346C21.7612 4.514 21.8545 4.74267 21.8545 5.032C21.8545 5.312 21.7612 5.536 21.5745 5.704C21.3879 5.86267 21.1359 5.942 20.8185 5.942ZM30.1371 15C29.4371 15 28.8771 14.7947 28.4571 14.384C28.0371 13.9733 27.8271 13.4273 27.8271 12.746V6.04H25.1951V4.78H29.2131V12.732C29.2131 13.04 29.2971 13.2873 29.4651 13.474C29.6424 13.6513 29.8804 13.74 30.1791 13.74H32.5171V15H30.1371ZM37.3836 15.14C36.4596 15.14 35.7129 14.8647 35.1436 14.314C34.5836 13.7633 34.3036 13.012 34.3036 12.06V10.24C34.3036 9.288 34.5836 8.53667 35.1436 7.986C35.7129 7.43533 36.4596 7.16 37.3836 7.16C37.9996 7.16 38.5363 7.286 38.9936 7.538C39.4603 7.78067 39.8196 8.126 40.0716 8.574C40.3329 9.01267 40.4636 9.526 40.4636 10.114V11.5H35.6616V12.172C35.6616 12.732 35.8156 13.1707 36.1236 13.488C36.4316 13.8053 36.8516 13.964 37.3836 13.964C37.8316 13.964 38.2003 13.88 38.4896 13.712C38.7789 13.544 38.9516 13.3107 39.0076 13.012H40.3936C40.3003 13.6653 39.9783 14.1833 39.4276 14.566C38.8769 14.9487 38.1956 15.14 37.3836 15.14ZM35.6616 10.114V10.478H39.1056V10.114C39.1056 9.526 38.9563 9.07333 38.6576 8.756C38.3589 8.43867 37.9343 8.28 37.3836 8.28C36.8329 8.28 36.4083 8.43867 36.1096 8.756C35.8109 9.07333 35.6616 9.526 35.6616 10.114Z" fill="#DFE3E4"/>
</svg>
