<svg width="67" height="20" viewBox="0 0 67 20" fill="none" xmlns="http://www.w3.org/2000/svg">
  <rect width="67" height="20" rx="6" fill="white" fill-opacity="0.05"/>
  <path d="M11.892 15.112C11.0147 15.112 10.3333 14.916 9.848 14.524C9.36267 14.132 9.12 13.5813 9.12 12.872H10.492C10.492 13.208 10.6133 13.474 10.856 13.67C11.108 13.8567 11.4533 13.95 11.892 13.95H12.508C12.9653 13.95 13.3153 13.852 13.558 13.656C13.81 13.46 13.936 13.1847 13.936 12.83C13.936 12.2047 13.628 11.8547 13.012 11.78L10.94 11.486C10.3893 11.402 9.96467 11.178 9.666 10.814C9.36733 10.4407 9.218 9.96 9.218 9.372C9.218 8.68133 9.45133 8.14467 9.918 7.762C10.3847 7.37933 11.038 7.188 11.878 7.188H12.494C13.278 7.188 13.9127 7.37467 14.398 7.748C14.8833 8.12133 15.14 8.616 15.168 9.232H13.768C13.7493 8.97067 13.628 8.756 13.404 8.588C13.18 8.41067 12.8767 8.322 12.494 8.322H11.878C11.458 8.322 11.1313 8.41533 10.898 8.602C10.674 8.78867 10.562 9.04067 10.562 9.358C10.562 9.87133 10.8187 10.1607 11.332 10.226L13.278 10.506C14.6127 10.6833 15.28 11.458 15.28 12.83C15.28 13.558 15.0373 14.1227 14.552 14.524C14.076 14.916 13.3947 15.112 12.508 15.112H11.892ZM21.3645 15C20.7019 15 20.1745 14.8087 19.7825 14.426C19.3999 14.0433 19.2085 13.5347 19.2085 12.9V8.56H17.0105V7.3H19.2085V5.13H20.5945V7.3H23.7165V8.56H20.5945V12.886C20.5945 13.138 20.6645 13.3433 20.8045 13.502C20.9539 13.6607 21.1499 13.74 21.3925 13.74H23.6465V15H21.3645ZM26.3011 15V7.3H27.6731V8.784H27.6871C27.7617 8.28 27.9764 7.88333 28.3311 7.594C28.6951 7.30467 29.1757 7.16 29.7731 7.16C30.5664 7.16 31.1824 7.40733 31.6211 7.902C32.0597 8.38733 32.2791 9.07333 32.2791 9.96V10.632H30.8931V9.974C30.8931 8.90067 30.3657 8.364 29.3111 8.364C28.7791 8.364 28.3731 8.518 28.0931 8.826C27.8224 9.134 27.6871 9.57267 27.6871 10.142V15H26.3011ZM34.3456 15V13.74H37.0476V8.56H34.6256V7.3H38.4336V13.74H40.9676V15H34.3456ZM37.6076 5.942C37.2903 5.942 37.0383 5.86267 36.8516 5.704C36.6649 5.536 36.5716 5.312 36.5716 5.032C36.5716 4.74267 36.6649 4.514 36.8516 4.346C37.0383 4.178 37.2903 4.094 37.6076 4.094C37.9249 4.094 38.1769 4.178 38.3636 4.346C38.5503 4.514 38.6436 4.74267 38.6436 5.032C38.6436 5.312 38.5503 5.536 38.3636 5.704C38.1769 5.86267 37.9249 5.942 37.6076 5.942ZM42.8101 15V7.3H44.1821V8.77H44.1961C44.2615 8.266 44.4715 7.874 44.8261 7.594C45.1901 7.30467 45.6661 7.16 46.2541 7.16C47.0195 7.16 47.6308 7.40267 48.0881 7.888C48.5455 8.37333 48.7741 9.02667 48.7741 9.848V15H47.3881V10.072C47.3881 9.512 47.2481 9.08267 46.9681 8.784C46.6881 8.48533 46.3055 8.336 45.8201 8.336C45.3161 8.336 44.9195 8.49467 44.6301 8.812C44.3408 9.12 44.1961 9.554 44.1961 10.114V15H42.8101ZM52.1987 17.52V16.288H54.3687C54.7887 16.288 55.1247 16.1667 55.3767 15.924C55.6287 15.6907 55.7547 15.3687 55.7547 14.958V14.314L55.7827 12.984H55.7687C55.6753 13.46 55.4467 13.8287 55.0827 14.09C54.728 14.3513 54.2707 14.482 53.7107 14.482C52.9173 14.482 52.292 14.23 51.8347 13.726C51.3773 13.2127 51.1487 12.5127 51.1487 11.626V10.044C51.1487 9.15733 51.3773 8.45733 51.8347 7.944C52.292 7.42133 52.9173 7.16 53.7107 7.16C54.252 7.16 54.7 7.29067 55.0547 7.552C55.4187 7.81333 55.652 8.17267 55.7547 8.63H55.7687V7.3H57.1267V14.972C57.1267 15.756 56.8793 16.3767 56.3847 16.834C55.89 17.2913 55.218 17.52 54.3687 17.52H52.1987ZM54.1447 13.32C54.6393 13.32 55.0313 13.166 55.3207 12.858C55.61 12.55 55.7547 12.116 55.7547 11.556V10.114C55.7547 9.56333 55.61 9.134 55.3207 8.826C55.0313 8.518 54.6393 8.364 54.1447 8.364C53.6313 8.364 53.2347 8.51333 52.9547 8.812C52.6747 9.10133 52.5347 9.498 52.5347 10.002V11.682C52.5347 12.186 52.6747 12.5873 52.9547 12.886C53.2347 13.1753 53.6313 13.32 54.1447 13.32Z" fill="#DFE3E4"/>
</svg>
