<svg width="75" height="20" viewBox="0 0 75 20" fill="none" xmlns="http://www.w3.org/2000/svg">
  <rect width="75" height="20" rx="6" fill="white" fill-opacity="0.05"/>
  <path d="M9.162 15V13.74H11.864V8.56H9.442V7.3H13.25V13.74H15.784V15H9.162ZM12.424 5.942C12.1067 5.942 11.8547 5.86267 11.668 5.704C11.4813 5.536 11.388 5.312 11.388 5.032C11.388 4.74267 11.4813 4.514 11.668 4.346C11.8547 4.178 12.1067 4.094 12.424 4.094C12.7413 4.094 12.9933 4.178 13.18 4.346C13.3667 4.514 13.46 4.74267 13.46 5.032C13.46 5.312 13.3667 5.536 13.18 5.704C12.9933 5.86267 12.7413 5.942 12.424 5.942ZM17.6265 15V7.3H18.9985V8.77H19.0125C19.0779 8.266 19.2879 7.874 19.6425 7.594C20.0065 7.30467 20.4825 7.16 21.0705 7.16C21.8359 7.16 22.4472 7.40267 22.9045 7.888C23.3619 8.37333 23.5905 9.02667 23.5905 9.848V15H22.2045V10.072C22.2045 9.512 22.0645 9.08267 21.7845 8.784C21.5045 8.48533 21.1219 8.336 20.6365 8.336C20.1325 8.336 19.7359 8.49467 19.4465 8.812C19.1572 9.12 19.0125 9.554 19.0125 10.114V15H17.6265ZM29.7591 15C29.0964 15 28.5691 14.8087 28.1771 14.426C27.7944 14.0433 27.6031 13.5347 27.6031 12.9V8.56H25.4051V7.3H27.6031V5.13H28.9891V7.3H32.1111V8.56H28.9891V12.886C28.9891 13.138 29.0591 13.3433 29.1991 13.502C29.3484 13.6607 29.5444 13.74 29.7871 13.74H32.0411V15H29.7591ZM37.3836 15.14C36.4596 15.14 35.7129 14.8647 35.1436 14.314C34.5836 13.7633 34.3036 13.012 34.3036 12.06V10.24C34.3036 9.288 34.5836 8.53667 35.1436 7.986C35.7129 7.43533 36.4596 7.16 37.3836 7.16C37.9996 7.16 38.5363 7.286 38.9936 7.538C39.4603 7.78067 39.8196 8.126 40.0716 8.574C40.3329 9.01267 40.4636 9.526 40.4636 10.114V11.5H35.6616V12.172C35.6616 12.732 35.8156 13.1707 36.1236 13.488C36.4316 13.8053 36.8516 13.964 37.3836 13.964C37.8316 13.964 38.2003 13.88 38.4896 13.712C38.7789 13.544 38.9516 13.3107 39.0076 13.012H40.3936C40.3003 13.6653 39.9783 14.1833 39.4276 14.566C38.8769 14.9487 38.1956 15.14 37.3836 15.14ZM35.6616 10.114V10.478H39.1056V10.114C39.1056 9.526 38.9563 9.07333 38.6576 8.756C38.3589 8.43867 37.9343 8.28 37.3836 8.28C36.8329 8.28 36.4083 8.43867 36.1096 8.756C35.8109 9.07333 35.6616 9.526 35.6616 10.114ZM43.8041 17.52V16.288H45.9741C46.3941 16.288 46.7301 16.1667 46.9821 15.924C47.2341 15.6907 47.3601 15.3687 47.3601 14.958V14.314L47.3881 12.984H47.3741C47.2808 13.46 47.0521 13.8287 46.6881 14.09C46.3335 14.3513 45.8761 14.482 45.3161 14.482C44.5228 14.482 43.8975 14.23 43.4401 13.726C42.9828 13.2127 42.7541 12.5127 42.7541 11.626V10.044C42.7541 9.15733 42.9828 8.45733 43.4401 7.944C43.8975 7.42133 44.5228 7.16 45.3161 7.16C45.8575 7.16 46.3055 7.29067 46.6601 7.552C47.0241 7.81333 47.2575 8.17267 47.3601 8.63H47.3741V7.3H48.7321V14.972C48.7321 15.756 48.4848 16.3767 47.9901 16.834C47.4955 17.2913 46.8235 17.52 45.9741 17.52H43.8041ZM45.7501 13.32C46.2448 13.32 46.6368 13.166 46.9261 12.858C47.2155 12.55 47.3601 12.116 47.3601 11.556V10.114C47.3601 9.56333 47.2155 9.134 46.9261 8.826C46.6368 8.518 46.2448 8.364 45.7501 8.364C45.2368 8.364 44.8401 8.51333 44.5601 8.812C44.2801 9.10133 44.1401 9.498 44.1401 10.002V11.682C44.1401 12.186 44.2801 12.5873 44.5601 12.886C44.8401 13.1753 45.2368 13.32 45.7501 13.32ZM54.1727 15.14C53.2487 15.14 52.502 14.8647 51.9327 14.314C51.3727 13.7633 51.0927 13.012 51.0927 12.06V10.24C51.0927 9.288 51.3727 8.53667 51.9327 7.986C52.502 7.43533 53.2487 7.16 54.1727 7.16C54.7887 7.16 55.3253 7.286 55.7827 7.538C56.2493 7.78067 56.6087 8.126 56.8607 8.574C57.122 9.01267 57.2527 9.526 57.2527 10.114V11.5H52.4507V12.172C52.4507 12.732 52.6047 13.1707 52.9127 13.488C53.2207 13.8053 53.6407 13.964 54.1727 13.964C54.6207 13.964 54.9893 13.88 55.2787 13.712C55.568 13.544 55.7407 13.3107 55.7967 13.012H57.1827C57.0893 13.6653 56.7673 14.1833 56.2167 14.566C55.666 14.9487 54.9847 15.14 54.1727 15.14ZM52.4507 10.114V10.478H55.8947V10.114C55.8947 9.526 55.7453 9.07333 55.4467 8.756C55.148 8.43867 54.7233 8.28 54.1727 8.28C53.622 8.28 53.1973 8.43867 52.8987 8.756C52.6 9.07333 52.4507 9.526 52.4507 10.114ZM59.8792 15V7.3H61.2512V8.784H61.2652C61.3399 8.28 61.5545 7.88333 61.9092 7.594C62.2732 7.30467 62.7539 7.16 63.3512 7.16C64.1445 7.16 64.7605 7.40733 65.1992 7.902C65.6379 8.38733 65.8572 9.07333 65.8572 9.96V10.632H64.4712V9.974C64.4712 8.90067 63.9439 8.364 62.8892 8.364C62.3572 8.364 61.9512 8.518 61.6712 8.826C61.4005 9.134 61.2652 9.57267 61.2652 10.142V15H59.8792Z" fill="#DFE3E4"/>
</svg>
