<svg width="75" height="20" viewBox="0 0 75 20" fill="none" xmlns="http://www.w3.org/2000/svg">
  <rect width="75" height="20" rx="6" fill="white" fill-opacity="0.05"/>
  <path d="M12.718 15.14C12.1393 15.14 11.6633 14.9953 11.29 14.706C10.9167 14.4167 10.688 14.0153 10.604 13.502V15H9.232V4.78H10.618V6.992L10.59 8.784C10.674 8.28 10.9027 7.88333 11.276 7.594C11.6587 7.30467 12.1393 7.16 12.718 7.16C13.4833 7.16 14.0947 7.42133 14.552 7.944C15.0093 8.45733 15.238 9.15733 15.238 10.044V12.256C15.238 13.1427 15.0093 13.8473 14.552 14.37C14.0947 14.8833 13.4833 15.14 12.718 15.14ZM12.228 13.936C12.7413 13.936 13.138 13.8053 13.418 13.544C13.7073 13.2733 13.852 12.8393 13.852 12.242V10.058C13.852 9.46067 13.7073 9.03133 13.418 8.77C13.138 8.49933 12.7413 8.364 12.228 8.364C11.7333 8.364 11.3413 8.518 11.052 8.826C10.7627 9.134 10.618 9.568 10.618 10.128V12.172C10.618 12.732 10.7627 13.166 11.052 13.474C11.3413 13.782 11.7333 13.936 12.228 13.936ZM20.5945 15.112C19.6519 15.112 18.9005 14.8413 18.3405 14.3C17.7899 13.7587 17.5145 13.0027 17.5145 12.032V10.268C17.5145 9.29733 17.7899 8.54133 18.3405 8C18.9005 7.45867 19.6519 7.188 20.5945 7.188C21.5372 7.188 22.2839 7.45867 22.8345 8C23.3945 8.54133 23.6745 9.29733 23.6745 10.268V12.032C23.6745 13.0027 23.3945 13.7587 22.8345 14.3C22.2839 14.8413 21.5372 15.112 20.5945 15.112ZM20.5945 13.894C21.1172 13.894 21.5279 13.7493 21.8265 13.46C22.1345 13.1613 22.2885 12.7273 22.2885 12.158V10.142C22.2885 9.57267 22.1345 9.14333 21.8265 8.854C21.5279 8.55533 21.1172 8.406 20.5945 8.406C20.0719 8.406 19.6565 8.55533 19.3485 8.854C19.0499 9.14333 18.9005 9.57267 18.9005 10.142V12.158C18.9005 12.7273 19.0499 13.1613 19.3485 13.46C19.6565 13.7493 20.0719 13.894 20.5945 13.894ZM28.9891 15.112C28.0464 15.112 27.2951 14.8413 26.7351 14.3C26.1844 13.7587 25.9091 13.0027 25.9091 12.032V10.268C25.9091 9.29733 26.1844 8.54133 26.7351 8C27.2951 7.45867 28.0464 7.188 28.9891 7.188C29.9317 7.188 30.6784 7.45867 31.2291 8C31.7891 8.54133 32.0691 9.29733 32.0691 10.268V12.032C32.0691 13.0027 31.7891 13.7587 31.2291 14.3C30.6784 14.8413 29.9317 15.112 28.9891 15.112ZM28.9891 13.894C29.5117 13.894 29.9224 13.7493 30.2211 13.46C30.5291 13.1613 30.6831 12.7273 30.6831 12.158V10.142C30.6831 9.57267 30.5291 9.14333 30.2211 8.854C29.9224 8.55533 29.5117 8.406 28.9891 8.406C28.4664 8.406 28.0511 8.55533 27.7431 8.854C27.4444 9.14333 27.2951 9.57267 27.2951 10.142V12.158C27.2951 12.7273 27.4444 13.1613 27.7431 13.46C28.0511 13.7493 28.4664 13.894 28.9891 13.894ZM38.5316 15C37.8316 15 37.2716 14.7947 36.8516 14.384C36.4316 13.9733 36.2216 13.4273 36.2216 12.746V6.04H33.5896V4.78H37.6076V12.732C37.6076 13.04 37.6916 13.2873 37.8596 13.474C38.0369 13.6513 38.2749 13.74 38.5736 13.74H40.9116V15H38.5316ZM45.7781 15.14C44.8541 15.14 44.1075 14.8647 43.5381 14.314C42.9781 13.7633 42.6981 13.012 42.6981 12.06V10.24C42.6981 9.288 42.9781 8.53667 43.5381 7.986C44.1075 7.43533 44.8541 7.16 45.7781 7.16C46.3941 7.16 46.9308 7.286 47.3881 7.538C47.8548 7.78067 48.2141 8.126 48.4661 8.574C48.7275 9.01267 48.8581 9.526 48.8581 10.114V11.5H44.0561V12.172C44.0561 12.732 44.2101 13.1707 44.5181 13.488C44.8261 13.8053 45.2461 13.964 45.7781 13.964C46.2261 13.964 46.5948 13.88 46.8841 13.712C47.1735 13.544 47.3461 13.3107 47.4021 13.012H48.7881C48.6948 13.6653 48.3728 14.1833 47.8221 14.566C47.2715 14.9487 46.5901 15.14 45.7781 15.14ZM44.0561 10.114V10.478H47.5001V10.114C47.5001 9.526 47.3508 9.07333 47.0521 8.756C46.7535 8.43867 46.3288 8.28 45.7781 8.28C45.2275 8.28 44.8028 8.43867 44.5041 8.756C44.2055 9.07333 44.0561 9.526 44.0561 10.114ZM53.4587 15.14C52.6653 15.14 52.0353 14.9207 51.5687 14.482C51.1113 14.034 50.8827 13.4507 50.8827 12.732C50.8827 12.0133 51.1207 11.4347 51.5967 10.996C52.082 10.5573 52.7167 10.338 53.5007 10.338H55.7547V9.75C55.7547 8.80733 55.232 8.336 54.1867 8.336C53.72 8.336 53.342 8.42467 53.0527 8.602C52.7727 8.77 52.6233 9.008 52.6047 9.316H51.2327C51.2793 8.69067 51.564 8.17733 52.0867 7.776C52.6093 7.36533 53.3093 7.16 54.1867 7.16C55.1293 7.16 55.8573 7.384 56.3707 7.832C56.884 8.28 57.1407 8.91 57.1407 9.722V15H55.7827V13.586H55.7547C55.6893 14.062 55.4513 14.44 55.0407 14.72C54.6393 15 54.112 15.14 53.4587 15.14ZM53.8227 13.978C54.4107 13.978 54.8773 13.838 55.2227 13.558C55.5773 13.2687 55.7547 12.8767 55.7547 12.382V11.36H53.6267C53.2253 11.36 52.8987 11.4813 52.6467 11.724C52.404 11.9573 52.2827 12.27 52.2827 12.662C52.2827 13.0633 52.418 13.3853 52.6887 13.628C52.9593 13.8613 53.3373 13.978 53.8227 13.978ZM59.5992 15V7.3H60.9712V8.77H60.9852C61.0505 8.266 61.2605 7.874 61.6152 7.594C61.9792 7.30467 62.4552 7.16 63.0432 7.16C63.8085 7.16 64.4199 7.40267 64.8772 7.888C65.3345 8.37333 65.5632 9.02667 65.5632 9.848V15H64.1772V10.072C64.1772 9.512 64.0372 9.08267 63.7572 8.784C63.4772 8.48533 63.0945 8.336 62.6092 8.336C62.1052 8.336 61.7085 8.49467 61.4192 8.812C61.1299 9.12 60.9852 9.554 60.9852 10.114V15H59.5992Z" fill="#DFE3E4"/>
</svg>
